<?xml version="1.0" standalone="no"?>
<!DOCTYPE svg PUBLIC "-//W3C//DTD SVG 20010904//EN"
 "http://www.w3.org/TR/2001/REC-SVG-20010904/DTD/svg10.dtd">
<svg version="1.0" xmlns="http://www.w3.org/2000/svg"
 width="48" height="48" viewBox="0 0 193.000000 200.000000"
 preserveAspectRatio="xMidYMid meet">

<g transform="translate(0.000000,200.000000) scale(0.100000,-0.100000)"
fill="#000000" stroke="none">
<path d="M1142 1939 c4 -11 79 -41 85 -35 2 2 -3 9 -12 16 -8 7 -15 9 -15 6 0
-4 -10 0 -22 8 -26 19 -41 21 -36 5z"/>
<path d="M775 1924 c-11 -3 -27 -8 -35 -11 -8 -3 -21 -7 -28 -9 -7 -1 -28 -12
-48 -23 -19 -12 -32 -16 -29 -10 4 6 -6 4 -21 -4 -16 -8 -47 -18 -69 -22 -50
-9 -72 -24 -53 -38 10 -6 9 -8 -4 -4 -9 3 -24 -3 -33 -13 -15 -17 -16 -22 -4
-37 12 -16 12 -17 -1 -6 -10 8 -21 9 -30 2 -13 -8 -13 -10 0 -20 13 -9 13 -10
-2 -6 -9 3 -23 -2 -32 -12 -21 -23 -8 -36 14 -16 16 14 18 14 24 0 3 -9 2 -14
-3 -11 -4 3 -18 -9 -31 -26 -12 -17 -16 -27 -9 -23 17 10 -12 -22 -85 -94 -31
-30 -53 -58 -49 -64 3 -6 1 -7 -5 -3 -7 4 -12 1 -12 -9 0 -9 -4 -14 -9 -11 -5
3 -11 -1 -14 -8 -3 -8 -3 -17 1 -19 4 -2 1 -2 -6 0 -8 2 -16 -6 -19 -17 -3
-11 -9 -20 -14 -20 -4 0 -13 -10 -20 -21 -9 -17 -8 -20 3 -13 7 4 5 -2 -5 -13
-9 -11 -17 -28 -17 -39 0 -16 2 -17 10 -4 5 8 10 11 10 7 0 -4 -9 -20 -20 -35
-10 -15 -21 -49 -24 -75 -3 -26 -10 -56 -16 -67 -5 -10 -10 -31 -10 -46 0 -17
-4 -24 -9 -19 -4 6 -5 42 -1 80 5 39 6 74 3 78 -3 4 0 13 5 20 6 7 20 41 32
77 12 36 33 80 46 98 14 17 21 32 17 32 -4 0 0 5 10 11 9 6 15 14 12 20 -4 5
0 9 7 9 13 1 113 97 113 109 0 4 12 20 27 36 30 32 36 49 16 43 -7 -3 -13 -10
-13 -16 0 -6 -8 -17 -17 -24 -9 -7 -30 -30 -47 -51 -16 -21 -32 -38 -35 -37
-34 4 -97 -99 -161 -260 -37 -93 -40 -112 -40 -245 1 -260 14 -374 49 -407 11
-12 14 -17 6 -13 -13 7 -13 6 -2 -7 7 -8 25 -39 41 -68 16 -29 31 -48 34 -44
7 13 -34 95 -44 88 -5 -3 -6 2 -2 12 5 15 7 15 15 0 5 -9 15 -16 22 -16 6 0
22 -20 34 -45 12 -25 26 -45 32 -45 5 0 9 -6 7 -12 -1 -7 5 -12 13 -10 8 2 12
0 8 -4 -9 -8 52 -80 65 -76 5 1 6 -2 2 -7 -13 -22 193 -200 215 -186 6 4 9 1
8 -6 -2 -7 13 -17 32 -23 19 -5 37 -13 40 -17 10 -13 82 -39 93 -32 5 3 7 2 4
-4 -8 -13 102 -35 122 -23 12 7 7 9 -21 10 -21 0 -38 5 -38 10 0 6 -6 10 -14
10 -8 0 -17 3 -19 8 -3 4 93 7 214 7 178 0 219 -3 219 -14 0 -8 -6 -11 -16 -7
-9 4 -33 3 -53 0 -30 -6 -32 -8 -16 -15 16 -6 13 -8 -15 -9 -19 -1 -29 -4 -21
-7 7 -3 37 0 65 6 28 6 60 13 71 15 11 2 34 10 50 17 17 7 33 13 36 13 3 1 24
10 47 21 39 19 50 41 29 56 -5 3 -1 9 8 12 9 4 13 3 10 -3 -3 -6 0 -10 7 -10
9 0 9 -3 -2 -10 -13 -8 -13 -10 1 -10 9 0 44 18 79 41 126 81 236 184 245 228
2 11 8 28 14 39 6 11 7 22 4 26 -4 3 1 12 11 19 12 9 19 29 21 60 2 31 14 64
34 98 18 27 28 55 25 61 -4 6 -3 8 3 5 13 -8 47 69 39 89 -3 8 -2 13 3 10 12
-8 24 124 16 182 -11 76 -37 162 -47 156 -6 -4 -7 2 -3 15 3 11 2 21 -3 21 -5
0 -9 8 -8 18 0 9 -4 16 -11 15 -7 -2 -10 3 -7 10 8 22 -101 246 -113 233 -7
-6 20 -66 29 -66 3 0 5 -8 3 -17 -2 -10 -4 -20 -4 -23 -1 -3 -10 9 -21 25 -11
17 -25 30 -32 30 -6 0 -13 7 -15 15 -4 13 -3 13 6 0 7 -10 11 -11 11 -2 0 6
-9 21 -20 32 -11 11 -20 21 -19 23 2 6 -26 63 -35 68 -5 4 -5 12 -1 19 6 10
10 9 17 -4 5 -8 18 -21 29 -26 18 -10 19 -9 7 9 -6 11 -16 17 -20 15 -4 -3 -8
0 -8 7 0 13 -98 109 -112 109 -4 0 -19 11 -34 25 -14 13 -30 22 -35 19 -5 -3
-9 -1 -9 5 0 6 -7 7 -17 4 -11 -4 -14 -3 -9 5 4 7 -10 19 -36 32 l-43 21 28
-26 c15 -14 24 -25 20 -25 -4 0 7 -9 25 -20 36 -22 35 -35 -3 -42 -13 -3 -22
-1 -19 3 6 11 -31 30 -41 21 -5 -4 -5 -1 0 7 6 11 3 13 -15 8 -15 -4 -20 -3
-13 4 13 13 -44 72 -59 63 -7 -5 -8 -2 -3 6 6 10 4 12 -8 7 -9 -3 -19 -2 -22
3 -4 6 -17 10 -30 10 -13 0 -27 5 -30 10 -5 8 -12 7 -23 -2 -10 -7 -14 -8 -10
-4 12 14 -22 33 -67 39 -59 9 -247 16 -270 11z m422 -70 c-3 -3 -12 -4 -19 -1
-8 3 -5 6 6 6 11 1 17 -2 13 -5z m274 -114 c5 0 9 -7 9 -15 0 -21 -14 -19 -36
7 -18 20 -18 21 -1 15 10 -4 23 -7 28 -7z m-633 -177 c7 -7 19 -13 27 -13 29
0 43 -728 16 -865 -32 -162 -90 -215 -238 -215 -164 0 -288 102 -312 257 -15
97 -4 123 51 123 14 0 28 3 31 8 2 4 3 2 1 -3 -4 -20 33 -150 54 -191 27 -52
109 -127 134 -121 10 3 16 1 12 -4 -9 -16 12 -10 46 13 19 13 37 35 41 50 4
15 8 195 8 400 1 381 7 531 22 558 5 8 9 10 9 3 0 -7 9 -9 22 -5 21 5 21 6 2
13 -13 5 -6 7 21 6 22 -1 46 -8 53 -14z m275 -7 l27 -6 2 -183 c0 -100 1 -204
0 -232 -1 -56 -6 -58 55 20 12 16 20 32 17 37 -3 5 -2 7 3 6 5 -2 25 16 46 38
37 41 48 62 25 48 -7 -4 -8 -3 -4 5 4 6 11 9 15 6 9 -5 49 34 51 50 1 6 5 9 9
8 4 -1 30 21 57 50 27 28 38 43 24 32 l-25 -20 18 21 c9 11 14 24 10 29 -5 4
0 3 10 -2 14 -7 29 -5 55 9 22 11 54 18 79 16 40 -2 42 -3 36 -27 -3 -14 -20
-42 -37 -61 -65 -75 -85 -103 -79 -113 3 -6 1 -7 -4 -4 -6 4 -19 -3 -29 -14
-16 -17 -16 -22 -4 -30 12 -8 10 -9 -7 -4 -16 4 -25 0 -32 -14 -6 -11 -17 -26
-23 -33 -26 -28 -61 -82 -61 -94 0 -7 -7 -16 -14 -19 -10 -3 -12 -12 -8 -26 5
-15 4 -19 -4 -15 -6 4 -11 0 -11 -8 0 -9 -4 -16 -8 -16 -13 0 -36 -52 -33 -75
2 -11 -1 -17 -5 -12 -10 9 -55 -83 -47 -96 3 -6 1 -7 -4 -4 -6 4 -14 0 -17 -9
-3 -8 -2 -13 3 -10 4 3 18 -8 30 -25 13 -17 25 -28 28 -25 3 3 22 -11 42 -31
20 -19 50 -42 66 -50 17 -9 38 -22 47 -30 9 -8 22 -12 29 -7 8 5 10 3 4 -6 -6
-10 -4 -12 9 -7 10 4 15 3 11 -3 -8 -13 30 -31 52 -24 13 4 14 3 5 -4 -10 -7
-7 -12 15 -20 63 -24 96 -31 107 -25 6 3 8 3 4 -2 -4 -4 0 -14 8 -22 8 -8 11
-19 8 -24 -7 -12 -153 -9 -160 3 -3 5 -15 6 -26 2 -12 -3 -18 -2 -15 3 8 12
-59 36 -74 27 -8 -5 -9 -3 -4 6 6 10 4 12 -9 7 -10 -4 -15 -3 -11 3 3 6 -1 10
-9 10 -9 0 -16 5 -16 10 0 6 -5 10 -10 10 -6 0 -35 16 -65 36 -31 21 -59 33
-66 28 -7 -4 -10 -3 -5 4 3 6 -2 15 -12 21 -16 9 -18 6 -17 -32 1 -23 2 -68 3
-100 1 -35 6 -56 12 -52 5 3 7 0 4 -9 -14 -37 -145 -36 -167 1 -5 7 -12 11
-16 9 -4 -3 -8 10 -9 27 -2 17 -6 34 -10 37 -4 3 -8 19 -9 35 -3 54 -1 619 2
665 3 25 8 98 14 163 6 88 13 123 26 137 17 19 56 30 65 19 3 -3 17 -9 33 -13z
m-827 -61 c-8 -8 -18 -15 -22 -15 -3 0 -1 7 6 15 7 8 17 15 22 15 5 0 3 -7 -6
-15z m14 -39 c0 -2 -7 -7 -16 -10 -8 -3 -12 -2 -9 4 6 10 25 14 25 6z m1134
-322 c3 -8 2 -12 -4 -9 -6 3 -10 10 -10 16 0 14 7 11 14 -7z m-1367 -106 c-3
-8 -6 -5 -6 6 -1 11 2 17 5 13 3 -3 4 -12 1 -19z m1219 -66 c-17 -16 -18 -16
-5 5 7 12 15 20 18 17 3 -2 -3 -12 -13 -22z m-756 -357 c14 -19 14 -19 -2 -6
-10 7 -18 18 -18 24 0 6 1 8 3 6 1 -2 9 -13 17 -24z m-179 -18 c-10 -9 -11 -8
-5 6 3 10 9 15 12 12 3 -3 0 -11 -7 -18z m-119 -62 c-8 -16 -9 -16 -15 -1 -4
10 -3 15 3 11 6 -3 10 -1 10 6 0 7 3 10 6 6 3 -3 2 -13 -4 -22z m823 -93 c-3
-3 -11 0 -18 7 -9 10 -8 11 6 5 10 -3 15 -9 12 -12z m142 12 c-3 -3 -12 -4
-19 -1 -8 3 -5 6 6 6 11 1 17 -2 13 -5z m-597 -217 c0 -5 7 -7 15 -3 8 3 14 0
12 -5 -1 -6 13 -19 30 -28 18 -9 33 -19 33 -23 0 -13 -33 -9 -64 7 -15 8 -33
12 -39 8 -6 -4 -7 -1 -2 7 6 9 4 12 -6 8 -9 -4 -14 2 -14 16 0 14 6 22 18 22
9 0 17 -4 17 -9z m80 -22 c14 -8 21 -14 15 -14 -5 0 -21 6 -35 14 -14 8 -20
14 -15 14 6 0 21 -6 35 -14z m632 -25 c6 0 9 -3 5 -6 -8 -8 -77 -23 -77 -17 0
12 36 32 48 28 8 -3 19 -5 24 -5z"/>
<path d="M1267 1869 c7 -7 15 -10 18 -7 3 3 -2 9 -12 12 -14 6 -15 5 -6 -5z"/>
<path d="M368 1743 c7 -3 16 -2 19 1 4 3 -2 6 -13 5 -11 0 -14 -3 -6 -6z"/>
<path d="M275 1660 c-21 -22 -34 -40 -29 -40 6 0 25 18 43 40 17 22 30 40 29
40 -2 0 -22 -18 -43 -40z"/>
<path d="M1660 1561 c0 -6 4 -13 10 -16 6 -3 7 1 4 9 -7 18 -14 21 -14 7z"/>
<path d="M1817 684 c-18 -30 -27 -58 -27 -87 l1 -42 19 24 c11 13 20 38 20 56
0 19 5 46 10 61 16 42 7 37 -23 -12z"/>
<path d="M196 467 c3 -10 9 -15 12 -12 3 3 0 11 -7 18 -10 9 -11 8 -5 -6z"/>
<path d="M260 364 c0 -2 9 -8 20 -14 15 -8 18 -8 14 3 -4 11 -34 21 -34 11z"/>
<path d="M860 96 c0 -2 7 -6 15 -10 8 -3 15 -1 15 4 0 6 -7 10 -15 10 -8 0
-15 -2 -15 -4z"/>
</g>
</svg>
